<svg width="20" height="21" viewBox="0 0 20 21" fill="none" xmlns="http://www.w3.org/2000/svg">
<path d="M11.343 19.0117V11.0095H14.1452L14.5734 7.89435H11.343V5.90841C11.343 5.40219 11.4403 5.03875 11.6349 4.81809C11.8814 4.53253 12.3225 4.38975 12.9582 4.38975H14.6901V1.60554C14.4955 1.57958 14.1906 1.55362 13.7755 1.52766C13.2306 1.5017 12.6922 1.48872 12.1603 1.48872C11.33 1.48872 10.597 1.64772 9.96133 1.96573C9.32564 2.28374 8.83265 2.75102 8.48237 3.36757C8.13209 3.98412 7.95695 4.72723 7.95695 5.59689V7.89435H5.13525V11.0095H7.95695V19.0117H11.343Z" fill="white"/>
</svg>
