<svg width="20" height="21" viewBox="0 0 20 21" fill="none" xmlns="http://www.w3.org/2000/svg">
<g clip-path="url(#clip0_295_703)">
<path d="M13.1136 10.2499C13.1136 10.8469 12.9385 11.4246 12.5882 11.9827C12.2639 12.4889 11.7968 12.8718 11.1871 13.1314C10.6163 13.3651 10.0162 13.4235 9.38703 13.3067C8.75782 13.1898 8.22267 12.9108 7.78158 12.4694C7.34049 12.0281 7.05832 11.4862 6.93507 10.8437C6.81182 10.2012 6.87345 9.60735 7.11994 9.06219C7.36643 8.47809 7.75239 8.01081 8.27781 7.66035C8.80323 7.30989 9.3773 7.13466 10 7.13466C10.4152 7.13466 10.8141 7.21579 11.1968 7.37804C11.5795 7.54029 11.9136 7.76419 12.199 8.04975C12.4844 8.33531 12.7082 8.66955 12.8704 9.05246C13.0325 9.43537 13.1136 9.8345 13.1136 10.2499ZM19.73 5.96646V14.5333C19.73 15.2472 19.5906 15.9383 19.3116 16.6068C19.0327 17.2753 18.637 17.8659 18.1246 18.3786C17.6121 18.8913 17.0218 19.2872 16.3537 19.5663C15.6856 19.8453 14.9948 19.9849 14.2812 19.9849H5.71882C5.00529 19.9849 4.31446 19.8453 3.64633 19.5663C2.9782 19.2872 2.38792 18.8913 1.87547 18.3786C1.36302 17.8659 0.967336 17.2753 0.68841 16.6068C0.409483 15.9383 0.27002 15.2472 0.27002 14.5333V5.96646C0.27002 5.25256 0.409483 4.56138 0.68841 3.89291C0.967336 3.22444 1.36302 2.63385 1.87547 2.12114C2.38792 1.60843 2.9782 1.21254 3.64633 0.933468C4.31446 0.654398 5.00529 0.514862 5.71882 0.514862H14.2812C14.9948 0.514862 15.6856 0.654398 16.3537 0.933468C17.0218 1.21254 17.6121 1.60843 18.1246 2.12114C18.637 2.63385 19.0327 3.22444 19.3116 3.89291C19.5906 4.56138 19.73 5.25256 19.73 5.96646ZM14.651 10.2499C14.651 9.3153 14.3915 8.44564 13.8726 7.64088C13.6261 7.26446 13.3212 6.93023 12.9579 6.63818C12.5947 6.34613 12.2055 6.10924 11.7903 5.92752C10.9082 5.56408 10.0065 5.47322 9.0854 5.65494C8.13835 5.86262 7.34697 6.29096 6.71128 6.93996C6.03667 7.61492 5.60855 8.41319 5.42692 9.33477C5.33611 9.77609 5.3134 10.2304 5.35881 10.6977C5.40422 11.165 5.51449 11.6095 5.68963 12.0314C5.86477 12.4532 6.09829 12.8426 6.39019 13.1996C6.68209 13.5565 7.02264 13.8648 7.41184 14.1244C8.21619 14.6436 9.0854 14.9032 10.0195 14.9032C10.6292 14.9032 11.2195 14.7831 11.7903 14.543C12.3612 14.3029 12.8671 13.9621 13.3082 13.5208C13.7493 13.0795 14.0866 12.5765 14.3201 12.0119C14.5537 11.4473 14.6769 10.8534 14.6899 10.2304L14.651 10.2499ZM16.2078 5.18766C16.2078 4.94104 16.1429 4.72687 16.0132 4.54515C15.8705 4.33747 15.6953 4.19145 15.4877 4.10708C15.2802 4.02271 15.0596 3.99999 14.8261 4.03893C14.5926 4.07787 14.3882 4.18496 14.2131 4.36019C14.038 4.53542 13.9309 4.73661 13.892 4.96376C13.8531 5.19091 13.8726 5.41481 13.9504 5.63547C14.0153 5.81719 14.158 5.99242 14.3785 6.16116C14.5861 6.30394 14.8002 6.37533 15.0207 6.37533C15.3191 6.37533 15.598 6.25851 15.8575 6.02487C16.078 5.80421 16.1883 5.53163 16.1883 5.20713L16.2078 5.18766Z" fill="white"/>
</g>
<defs>
<clipPath id="clip0_295_703">
<rect width="19.46" height="20" fill="white" transform="matrix(1 0 0 -1 0.27002 20.25)"/>
</clipPath>
</defs>
</svg>
