<svg width="20" height="21" viewBox="0 0 20 21" fill="none" xmlns="http://www.w3.org/2000/svg">
<path d="M1.24316 3.43553C1.24316 2.86441 1.44101 2.39713 1.83669 2.03369C2.23238 1.67025 2.74483 1.48853 3.37403 1.48853C4.00324 1.48853 4.5092 1.67025 4.89191 2.03369C5.27463 2.39713 5.46598 2.87739 5.46598 3.47447C5.46598 4.01963 5.27787 4.46744 4.90164 4.8179C4.4865 5.19432 3.96756 5.38253 3.34484 5.38253H3.32538C2.70266 5.38253 2.19995 5.19432 1.81723 4.8179C1.43452 4.44148 1.24316 3.98069 1.24316 3.43553ZM1.45722 18.1743V6.92066H5.213V18.1743H1.45722ZM7.29522 18.1743H11.051V11.8855C11.051 11.4701 11.0964 11.1651 11.1872 10.9704C11.3559 10.568 11.5959 10.25 11.9072 10.0164C12.2186 9.74381 12.6208 9.60752 13.1138 9.60752C14.3722 9.60752 15.0014 10.4577 15.0014 12.1581V18.1743H18.7572V11.7103C18.7572 10.0359 18.3647 8.77355 17.5798 7.92336C16.7949 7.07317 15.7538 6.64808 14.4565 6.64808C13.0035 6.64808 11.8683 7.27112 11.051 8.5172V8.55614H11.0315L11.051 8.5172V6.92066H7.29522C7.32117 7.38794 7.33414 8.50422 7.33414 10.2695C7.33414 11.23 7.32766 13.1186 7.31468 15.9353L7.29522 18.1743Z" fill="white"/>
</svg>
