<svg width="20" height="21" viewBox="0 0 20 21" fill="none" xmlns="http://www.w3.org/2000/svg">
<g clip-path="url(#clip0_295_709)">
<path d="M10.8548 16.4907L7.25998 16.413H6.67703C6.02931 16.4 5.54352 16.3871 5.21966 16.3741C4.68853 16.3352 4.20922 16.2704 3.78173 16.1797C3.2506 16.063 2.83606 15.8038 2.5381 15.402C2.29197 15.065 2.11061 14.6113 1.99402 14.041C1.91629 13.6911 1.85152 13.1661 1.7997 12.4662L1.78027 12.3496C1.59891 10.1332 1.67664 7.91678 2.01345 5.70038C2.11709 5.09119 2.34703 4.60838 2.70327 4.25194C3.05952 3.8955 3.52264 3.69784 4.09263 3.65896C5.89329 3.52934 7.84293 3.45805 9.94154 3.44509C11.6386 3.43213 13.5817 3.46453 15.771 3.5423C16.1337 3.55526 16.5418 3.60711 16.9952 3.69784C17.5781 3.81449 18.038 4.09316 18.3748 4.53385C18.6339 4.88381 18.8282 5.37634 18.9578 6.01145C19.0355 6.37437 19.1003 6.95115 19.1521 7.7418L19.1715 7.99454C19.2881 9.79618 19.2298 11.5978 18.9967 13.3995C18.8801 14.2679 18.6922 14.9095 18.4331 15.3242C18.0834 15.8816 17.5458 16.1926 16.8203 16.2574C14.4238 16.4389 12.4417 16.5167 10.8743 16.4907H10.8548ZM8.73678 12.719C10.3431 11.7209 11.8329 10.8007 13.206 9.9582L8.73678 7.17798V12.719Z" fill="white"/>
</g>
<defs>
<clipPath id="clip0_295_709">
<rect width="18.46" height="20" fill="white" transform="matrix(1 0 0 -1 0.77002 20.25)"/>
</clipPath>
</defs>
</svg>
