<svg width="3508" height="1182" xmlns="http://www.w3.org/2000/svg" xml:space="preserve" style="fill-rule:evenodd;clip-rule:evenodd;stroke-linejoin:round;stroke-miterlimit:2; width: 168px;height: auto;" viewBox="0 0 3508 1182">
    <path d="M0 24.488 8.283-1.92h.24l7.682 26.408H0Zm-36.132 30.61h26.529l3.841-12.244h27.249l3.601 12.244h27.369L21.247-30.61H-4.561l-31.571 85.708ZM136.122-30.61h-26.409v46.695c0 8.763 0 19.687-12.484 19.687-12.844 0-12.844-10.924-12.844-19.687V-30.61H57.977v52.577c0 23.768 12.964 35.171 39.132 35.171 26.169 0 39.013-11.403 39.013-35.171V-30.61Zm33.369 85.708H195.9V-8.643h24.007V-30.61h-74.424v21.967h24.008v63.741Zm52.817-42.854c0 26.168 17.406 44.894 43.454 44.894 26.048 0 43.454-18.726 43.454-44.894S291.81-32.65 265.762-32.65c-26.048 0-43.454 18.726-43.454 44.894m26.408 0c0-19.086 10.324-23.527 17.046-23.527 6.722 0 17.045 4.441 17.045 23.527 0 19.086-10.323 23.528-17.045 23.528-6.722 0-17.046-4.442-17.046-23.528" style="fill:#1a171b;fill-rule:nonzero" transform="translate(256.848 333.796) scale(4.16667)"></path>
    <path d="M0 108.113h30.537l12.647-61.228h15.422l4.01-18.816H47.039c1.542-7.248 4.01-9.562 10.025-9.562 3.547 0 6.169.154 8.174.463l4.318-20.204c-5.398-.308-10.641-.771-16.039-.771-23.905 0-32.234 6.478-37.015 30.074H4.164L0 46.885h12.647L0 108.113Zm57.68 0h30.537L111.042-2.005H80.505L57.68 108.113Zm81.738-49.044c2.313-8.483 7.711-13.418 15.885-13.418 7.712 0 11.567 4.781 11.567 10.796 0 .771-.154 1.851-.308 2.622h-27.144Zm21.9 25.756c-1.542 2.776-5.398 5.706-12.03 5.706-9.562 0-12.492-7.094-12.492-15.577h57.064c1.388-4.935 1.542-9.562 1.542-13.88 0-25.139-21.437-35.01-39.173-35.01-19.896 0-47.965 12.03-47.965 48.736 0 19.433 11.413 35.318 39.791 35.318 34.546 0 40.561-19.895 42.566-25.293h-29.303Zm25.292 23.288h33.621l14.806-19.587 8.791 19.587h30.845l-20.204-41.179 31.925-38.865h-33.313l-11.412 16.965-6.478-16.965h-30.845l18.199 37.323-35.935 42.721Z" style="fill:#bd1220;fill-rule:nonzero" transform="translate(1545.25 114.655) scale(4.16667)"></path>
    <path d="M0-12.244c-.24-10.203 3.001-17.165 12.604-17.165 5.642 0 10.083 2.64 10.083 10.203 0 6.122-6.962 9.483-11.283 12.124C.72-.6-11.284 5.762-18.246 15.485c-4.081 5.642-6.482 12.604-6.002 20.647h72.383V15.725H10.323v-.24.12C26.048 6.002 46.935-.72 46.935-22.087c0-17.766-13.804-26.289-34.091-26.289-22.447 0-36.732 13.205-35.411 36.132H0Zm92.55-12.004V-.84H72.143L92.55-24.248Zm0 60.38h24.968V19.566h11.283V-.84h-11.283v-46.575H93.63L55.458-3.001v22.567H92.55v16.566Z" style="fill:#1a171b;fill-rule:nonzero" transform="translate(2839.84 414.507) scale(4.16667)"></path>
    <path d="M27.955 111.503h4.539V77.389h-4.539v34.114Zm17.438 0h4.539V95.88h17.965v15.623h4.539V77.389h-4.539v14.668H49.932V77.389h-4.539v34.114Zm44.29-18.394V81.212h11.276c4.252 0 6.068 2.484 6.068 5.829 0 4.969-3.631 6.068-7.884 6.068h-9.46Zm-4.539 18.394h4.539V96.931h11.085c4.396 0 5.208 2.819 5.686 6.163.668 3.345-.048 7.024 1.242 8.409h5.064c-1.911-2.341-1.72-6.068-2.006-9.412-.335-3.345-1.147-6.259-5.113-7.024v-.095c4.109-1.147 5.925-4.539 5.925-8.648 0-5.447-3.966-8.935-10.368-8.935H85.144v34.114Zm56.713 0h4.539V77.389h-4.539v34.114Zm17.391 0h4.3V84.126h.096l17.821 27.377h4.969V77.389h-4.3v27.664h-.096l-17.964-27.664h-4.826v34.114Zm39.751 0h4.3V84.126h.096l17.821 27.377h4.969V77.389h-4.3v27.664h-.096l-17.964-27.664h-4.826v34.114Zm37.888-17.057c0 9.269 5.494 17.869 16.34 17.869s16.34-8.6 16.34-17.869-5.494-17.869-16.34-17.869-16.34 8.6-16.34 17.869m4.539 0c0-6.88 3.487-14.047 11.801-14.047 8.313 0 11.801 7.167 11.801 14.047 0 6.88-3.488 14.047-11.801 14.047-8.314 0-11.801-7.167-11.801-14.047m64.5-17.057h-4.73l-9.842 29.575h-.096l-9.746-29.575h-4.922l12.041 34.114h5.16l12.135-34.114Zm2.633 34.114h4.682l3.822-10.272h14.429l3.727 10.272h5.017l-13.33-34.114h-5.017l-13.33 34.114Zm15.719-30.005h.095l5.686 15.911h-11.562l5.781-15.911Zm27.912 30.005h4.539V81.212H368.1v-3.823h-27.281v3.823h11.371v30.291Zm25.131 0h4.539V77.389h-4.539v34.114Zm43-34.114h-4.73l-9.842 29.575h-.096l-9.747-29.575h-4.921l12.04 34.114h5.16l12.136-34.114Zm8.886 34.114h23.699v-3.822h-19.16V95.88h17.726v-3.823h-17.726V81.212h19.016v-3.823h-23.555v34.114Zm58.481-24.128c-.287-7.501-5.59-10.798-12.566-10.798-6.211 0-12.375 3.058-12.375 9.986 0 6.259 5.495 7.836 10.942 9.03 5.447 1.194 10.893 2.007 10.893 6.689 0 4.921-4.539 6.211-8.648 6.211-5.16 0-9.938-2.484-9.938-8.218h-4.3c0 8.314 6.45 12.04 14.095 12.04 6.211 0 13.33-2.914 13.33-10.176 0-6.689-5.447-8.6-10.893-9.843-5.495-1.242-10.942-1.863-10.942-6.068 0-4.443 3.823-5.829 7.645-5.829 4.682 0 7.931 2.103 8.457 6.976h4.3Zm26.66 24.128h4.682l3.823-10.272h14.429l3.726 10.272h5.017l-13.33-34.114h-5.017l-13.33 34.114Zm15.719-30.005h.096l5.685 15.911h-11.562l5.781-15.911Zm51.792-4.109h-4.539v21.787c0 6.02-3.154 9.317-8.887 9.317-6.02 0-9.46-3.297-9.46-9.317V77.389h-4.539v21.787c0 9.078 5.208 13.139 13.999 13.139 8.505 0 13.426-4.538 13.426-13.139V77.389Zm20.257 34.114h4.539V81.212h11.371v-3.823h-27.281v3.823h11.371v30.291Zm23.029-17.057c0 9.269 5.494 17.869 16.34 17.869s16.34-8.6 16.34-17.869-5.494-17.869-16.34-17.869-16.34 8.6-16.34 17.869m4.539 0c0-6.88 3.488-14.047 11.801-14.047 8.314 0 11.801 7.167 11.801 14.047 0 6.88-3.487 14.047-11.801 14.047-8.313 0-11.801-7.167-11.801-14.047m38.939 17.057h4.539V95.88h17.965v15.623h4.539V77.389h-4.539v14.668h-17.965V77.389h-4.539v34.114Zm35.69 0h4.682l3.823-10.272h14.429l3.726 10.272h5.017l-13.33-34.114h-5.017l-13.33 34.114Zm15.719-30.005h.096l5.685 15.911h-11.562l5.781-15.911Zm51.792-4.109h-4.539v21.787c0 6.02-3.154 9.317-8.887 9.317-6.02 0-9.46-3.297-9.46-9.317V77.389h-4.539v21.787c0 9.078 5.208 13.139 13.999 13.139 8.504 0 13.426-4.538 13.426-13.139V77.389Zm36.55 9.986c-.287-7.501-5.59-10.798-12.566-10.798-6.211 0-12.375 3.058-12.375 9.986 0 6.259 5.495 7.836 10.942 9.03 5.446 1.194 10.893 2.007 10.893 6.689 0 4.921-4.539 6.211-8.648 6.211-5.16 0-9.938-2.484-9.938-8.218h-4.3c0 8.314 6.45 12.04 14.095 12.04 6.211 0 13.33-2.914 13.33-10.176 0-6.689-5.447-8.6-10.894-9.843-5.494-1.242-10.941-1.863-10.941-6.068 0-4.443 3.822-5.829 7.645-5.829 4.682 0 7.931 2.103 8.456 6.976h4.301Z" style="fill:#1a171b;fill-rule:nonzero" transform="translate(0 394.054) scale(4.16667)"></path>
  </svg>