<svg preserveAspectRatio="xMidYMid meet" data-bbox="13.136 18.052 629.195 110.89" viewBox="13.136 18.052 629.195 110.89" height="146.993" width="655.468" xmlns="http://www.w3.org/2000/svg" data-type="shape" role="presentation" aria-hidden="true" aria-label="">
    <g>
        <path d="M14.283 109.907c-3.483 13.972 1.127 19.034 11.656 19.034h37.055c10.529 0 17.663-5.062 21.146-19.034l6.663-26.727c3.483-13.972-1.127-19.034-11.656-19.034H42.092c-10.529 0-17.663 5.062-21.146 19.034l-6.663 26.727zm32.4-30.879c.784-3.137 2.656-4.149 5.896-4.149h10.732c3.238 0 4.606 1.013 3.824 4.149l-8.732 35.031c-.782 3.139-2.654 4.149-5.895 4.149H41.776c-3.24 0-4.607-1.011-3.825-4.149l8.732-35.031z" clip-rule="evenodd" fill-rule="evenodd"></path>
        <path d="M163.946 64.146h-45.863c-8.706 0-14.979 5.265-17.503 15.389l-3.608 14.479c-2.701 10.83.339 14.07 10.158 14.07h20.148c3.847 0 4.53.507 3.95 2.836l-1.11 4.453c-.605 2.43-1.517 2.835-5.364 2.835h-23.893c-4.859 0-6.986-1.213-9.113-2.43l-1.155 13.162h44.546c11.846 0 16.904-5.67 19.452-15.896l3.938-15.794c2.347-9.414-2.413-13.06-12.942-13.06H128.07c-3.848 0-4.657-.406-4.051-2.836l.908-3.643c.58-2.328 1.617-2.835 5.465-2.835h22.981c4.759 0 6.784.811 9.493 2.125l1.08-12.855z"></path>
        <path d="M173.231 64.146l-5.356 13.364c3.162-1.72 5.312-2.632 9.868-2.632h11.238l-10.701 42.925c-1.539 6.177-2.954 8.606-4.801 11.138h28.753c-.585-2.531-.789-4.961.751-11.138l10.701-42.925h11.237c4.556 0 6.252.912 8.557 2.632l1.307-13.364h-61.554z"></path>
        <path d="M264.277 74.878h13.971c3.139 0 3.924.507 3.142 3.643l-1.969 7.897c-.782 3.139-1.82 3.646-4.958 3.646H260.49l3.787-15.186zm1.132 25.918l4.729 28.145h27.638c-1.52-2.43-1.902-5.771-2.892-9.921l-4.267-18.224c5.366-.405 10.15-.912 12.521-10.429l2.979-11.947c2.7-10.832-1.908-14.274-13.248-14.274h-53.252c1.191 2.531 1.396 4.961-.145 11.138l-10.6 42.52c-1.54 6.177-2.955 8.606-4.801 11.138h28.752c-.584-2.531-.788-4.961.752-11.138l4.24-17.007h7.594v-.001z" clip-rule="evenodd" fill-rule="evenodd"></path>
        <path d="M307.952 118.006c-1.64 6.582-3.334 8.505-5.357 10.935h29.157c-.811-2.43-1.547-4.353.094-10.935l9.137-36.65h-26.525c.812 2.43 1.547 4.355-.093 10.936l-6.413 25.714zm13.63-53.86l-3.13 12.554h23.488l3.13-12.554h-23.488z" clip-rule="evenodd" fill-rule="evenodd"></path>
        <path d="M378.073 128.941h31.992l13.249-53.15c1.818-7.291 2.449-8.607 5.333-11.645h-15.592c1.37 3.037 1.345 4.354-.472 11.645l-10.272 41.205h-.304l-13.148-52.85h-34.727c1.369 3.037 1.345 4.354-.472 11.645l-10.348 41.506c-1.816 7.292-2.448 8.606-5.331 11.645h15.59c-1.368-3.038-1.345-4.353.473-11.645l10.474-42.013h.203l13.352 53.657z"></path>
        <path d="M459.021 90.064l-2.979 11.945c1.367-.605 2.632-1.213 4.454-1.213h9.213l-3.306 13.263c-.782 3.139-2.656 4.149-5.896 4.149h-8.301c-3.24 0-4.608-1.011-3.824-4.149l8.73-35.031c.783-3.137 2.654-4.149 5.896-4.149h26.222c4.758 0 7.011.709 9.492 1.72l1.18-12.452h-47.38c-10.529 0-17.664 5.062-21.146 19.034l-6.662 26.727c-3.482 13.972 1.127 19.034 11.656 19.034h21.868c6.986 0 8.451-2.228 10.499-5.974h.203l-.68 5.974h21.767c-1.368-3.443-1.446-4.758.549-12.756l3.988-15.997c1.109-4.454 1.741-5.771 5.56-10.124h-41.103v-.001z"></path>
        <path d="M525.173 118.208l4.341-17.412h17.615c5.67 0 8.277.912 10.708 1.72l3.533-14.172c-2.835.808-5.896 1.72-11.565 1.72h-17.616l3.786-15.186h20.147c5.77 0 8.378.912 10.809 1.72l1.079-12.452h-56.087c.583 2.531.787 4.961-.753 11.138l-10.6 42.52c-1.54 6.177-2.955 8.606-4.8 11.138h57.099l5.331-12.452c-2.732.808-5.793 1.72-11.564 1.72h-21.463v-.002z"></path>
        <path d="M599.738 74.878h13.971c3.139 0 3.924.507 3.142 3.643l-1.969 7.897c-.782 3.139-1.819 3.646-4.958 3.646h-13.971l3.785-15.186zm1.133 25.918l4.728 28.145h27.639c-1.52-2.43-1.902-5.771-2.893-9.921l-4.265-18.224c5.364-.405 10.148-.912 12.521-10.429l2.979-11.947c2.7-10.832-1.91-14.274-13.249-14.274h-53.253c1.191 2.531 1.396 4.961-.144 11.138l-10.601 42.52c-1.539 6.177-2.955 8.606-4.8 11.138h28.753c-.585-2.531-.79-4.961.751-11.138l4.239-17.007h7.595v-.001z" clip-rule="evenodd" fill-rule="evenodd"></path>
        <path d="M106.509 41.176l9.608-13.669 2.351 13.669h-11.959zm12.945 6.707l.921 5.188c.158.887.048 2.089-.188 3.038-.221.886-.41 1.139-1.548 2.657h20.312c-1.014-1.519-1.789-3.48-2.155-5.568l-5.718-34.93H112.79l1.204 2.277L91.55 51.427c-2.228 3.101-3.271 4.239-6.449 7.34h11.453c-.476-1.392-.507-1.519-.16-2.911a6.79 6.79 0 0 1 1.169-2.404l4.11-5.568h17.781v-.001z" clip-rule="evenodd" fill-rule="evenodd"></path>
        <path d="M182.402 58.767c-.507-1.519-.967-2.721.059-6.834l5.711-22.906h-16.578c.507 1.519.966 2.721-.06 6.834l-3.645 14.617c-.457 1.835-1.248 2.468-3.082 2.468h-5.442c-1.836 0-2.31-.633-1.853-2.468l5.349-21.451h-16.58c.508 1.519.968 2.721-.058 6.834l-3.014 12.086c-1.657 6.645.213 10.82 7.237 10.82h12.085c2.216 0 3.56-1.582 4.634-3.101h.127l-.33 3.101h15.44z"></path>
        <path d="M196.879 29.027h-6.392l-1.451 5.821h6.392l-3.645 14.617c-1.847 7.403 1.793 9.302 6.54 9.302h18.73l2.684-6.961c-.774.316-2.752 1.14-5.662 1.14h-5.252c-2.658 0-2.848-.507-2.376-2.405l3.913-15.692h11.897l1.45-5.821h-11.896l1.609-6.454-15.029.379-1.512 6.074z"></path>
        <path d="M240.931 37.252c.427-1.708 1.106-2.404 2.751-2.404h6.202c1.771 0 2.104.696 1.678 2.404l-3.313 13.288c-.425 1.709-1.104 2.405-2.877 2.405h-6.201c-1.645 0-1.978-.696-1.552-2.405l3.312-13.288zm25.376.76c1.546-6.202.342-8.985-6.366-8.985h-23.287c-6.706 0-9.299 2.783-10.845 8.985l-2.935 11.77c-1.546 6.201-.342 8.985 6.366 8.985h23.285c6.708 0 9.301-2.784 10.847-8.985l2.935-11.77z" clip-rule="evenodd" fill-rule="evenodd"></path>
        <path d="M95.002 18.061L65.221 58.836h14.031l29.572-40.775H95.002z"></path>
        <path d="M74.027 18.052L44.246 58.828h14.031L87.85 18.052H74.027z"></path>
    </g>
</svg>