<svg width="14" height="14" viewBox="0 0 14 14" fill="none" xmlns="http://www.w3.org/2000/svg">
<path d="M4.6876 8.18464C5.07785 8.5013 5.41847 8.87957 5.6872 9.30235L6.06719 9.898C6.41807 8.79228 6.89391 7.69682 7.59911 6.76911C7.94144 6.29841 8.34368 5.86365 8.76303 5.47168C8.88627 5.26286 9.23031 4.74081 9.36896 4.53027C9.01122 4.62955 8.62952 4.799 8.29746 4.96845C7.84388 5.38781 7.41939 5.86365 7.04967 6.36345C6.58068 6.99676 6.187 7.68826 5.88062 8.41571C5.61018 8.08708 5.3055 7.78754 4.97002 7.53422C4.60886 7.38701 4.22716 7.27918 3.84033 7.25693C4.10393 7.52908 4.33671 7.78925 4.55409 8.08365C4.58832 8.13158 4.6431 8.15041 4.6876 8.18464Z" fill="#FEEC01"/>
<path d="M7.902 13.523C11.6865 12.9187 14.0725 8.79025 12.7237 5.20605C12.1195 3.5081 11.0514 1.88032 9.36546 1.08269C8.52332 0.740364 7.62471 0.504157 6.71411 0.505869C6.02774 0.52812 5.37389 0.675322 4.7286 0.887566C3.76152 1.26242 2.60958 1.91113 2.19707 2.9056C2.63354 2.16103 3.4791 1.78276 4.24934 1.48664C5.03156 1.21963 5.88225 1.12035 6.69871 1.18197C7.49805 1.2299 8.3436 1.38566 9.07961 1.70745C11.1747 2.70876 12.5816 5.55865 12.3968 7.83686C11.9552 12.359 6.72438 14.4387 3.15217 11.7514C1.19576 10.2742 0.204716 7.54759 0.908203 5.18723C1.25567 3.56458 2.30148 2.03266 3.81629 1.27953C2.0978 1.82041 0.815774 3.30955 0.24066 4.99894C-1.04308 9.73679 2.99641 14.401 7.902 13.523Z" fill="#FEEC01"/>
</svg>
