<?xml version="1.0" encoding="UTF-8"?>
<svg id="Ebene_1" xmlns="http://www.w3.org/2000/svg" xmlns:xlink="http://www.w3.org/1999/xlink" viewBox="0 0 23.2 23.2">
  <defs>
    <style>
      .cls-1, .cls-2 {
        fill: none;
      }

      .cls-2 {
        stroke: #faff00;
        stroke-linecap: round;
        stroke-linejoin: round;
        stroke-width: .48px;
      }

      .cls-3 {
        clip-path: url(#clippath);
      }
    </style>
    <clipPath id="clippath">
      <rect class="cls-1" x=".1" y=".1" width="23" height="23"/>
    </clipPath>
  </defs>
  <g class="cls-3">
    <rect class="cls-1" width="23.2" height="23.2"/>
    <g>
      <polygon class="cls-2" points="6.24 14.05 6.23 9.15 11.55 6.24 16.97 9.15 16.97 14 11.6 22.81 6.24 14.05"/>
      <path class="cls-2" d="M11.6,22.62l-5.27-8.62v-4.79l5.27-2.88,5.27,2.88v4.79l-5.27,8.62Z"/>
      <polygon class="cls-2" points="9.15 13.36 9.1 10.64 11.6 9.09 14.05 10.56 14.1 13.28 11.6 14.83 9.15 13.36"/>
      <path class="cls-2" d="M14,13.28l-2.4,1.44-2.4-1.44v-2.64l2.4-1.44,2.4,1.44v2.64Z"/>
      <polygon class="cls-2" points="18.39 15.01 18.22 14.9 22.52 7.74 22.52 3.71 17.83 .7 13.09 3.74 12.98 3.58 17.83 .46 22.72 3.6 22.72 7.79 22.71 7.82 18.39 15.01"/>
      <path class="cls-2" d="M18.31,14.95l4.31-7.19V3.66l-4.79-3.08-4.79,3.08"/>
      <polygon class="cls-2" points="18.4 8.01 18.29 7.84 19.65 6.99 19.65 5.19 17.83 4.05 16.01 5.19 16.01 6.33 15.81 6.33 15.81 5.08 17.83 3.81 19.85 5.08 19.85 7.1 18.4 8.01"/>
      <path class="cls-2" d="M18.35,7.92l1.4-.87v-1.92l-1.92-1.2-1.92,1.2v1.2"/>
      <polygon class="cls-2" points="4.81 15.01 .48 7.79 .48 3.6 .52 3.58 5.37 .46 5.42 .5 10.22 3.58 10.11 3.74 5.37 .7 .68 3.71 .68 7.74 4.98 14.9 4.81 15.01"/>
      <path class="cls-2" d="M4.89,14.95L.58,7.77V3.66L5.37.58l4.79,3.08"/>
      <polygon class="cls-2" points="4.8 8.01 3.35 7.1 3.35 5.08 5.37 3.81 7.39 5.08 7.39 6.33 7.19 6.33 7.19 5.19 5.37 4.05 3.55 5.19 3.55 6.99 4.91 7.84 4.8 8.01"/>
      <path class="cls-2" d="M4.85,7.92l-1.4-.87v-1.92l1.92-1.2,1.92,1.2v1.2"/>
    </g>
  </g>
</svg>