<svg width="64" height="91" viewBox="0 0 64 91" fill="none" xmlns="http://www.w3.org/2000/svg">
<path fill-rule="evenodd" clip-rule="evenodd" d="M19.1501 27.4552C19.6155 32.8871 49.5955 48.8795 49.7704 49.3282C49.8481 49.5276 46.7376 55.8316 40.4387 68.2402L43.0594 69.1111C52.7208 55.9695 57.3033 48.6986 56.8071 47.2983C56.0966 45.2935 48.3429 38.6984 33.5459 27.5131L19.1501 27.4552Z" fill="#B28B67"/>
<path fill-rule="evenodd" clip-rule="evenodd" d="M41.172 65.6029L45.4507 66.9349C54.473 58.229 58.0095 51.0458 57.3647 47.3859C56.9348 44.9459 49.2078 38.3618 34.1838 27.6335L18.8869 27.6335C19.4088 40.2131 47.1965 49.5411 47.5682 50.0771C47.9399 50.6132 44.2822 55.8634 41.172 65.6029Z" fill="#49519D"/>
<path fill-rule="evenodd" clip-rule="evenodd" d="M39.5113 67.9892C38.9764 68.5262 38.6434 68.9491 38.5126 69.2578C38.3534 69.6333 38.194 70.204 38.0343 70.9699C38.5416 71.1284 43.1013 72.5532 51.7133 75.2443C52.4965 74.3464 52.5222 73.7376 51.7905 73.4179C51.0587 73.0981 50.4533 72.8267 49.9742 72.6036L44.648 68.1835C44.5455 68.0984 44.3821 68.1008 44.283 68.1888C44.2813 68.1903 44.2796 68.1918 44.278 68.1934L43.5085 68.9168C42.6791 68.9792 42.0428 68.9412 41.5995 68.8027C41.2394 68.6901 40.7949 68.4099 40.2662 67.9618C40.0633 67.7899 39.7365 67.7917 39.5363 67.9659C39.5276 67.9734 39.5193 67.9812 39.5113 67.9892Z" fill="#E4E4E4"/>
<path fill-rule="evenodd" clip-rule="evenodd" d="M27.0996 38.2163L13.7443 65.6362L0.618164 88.8174H3.71505L37.5972 38.2163H27.0996Z" fill="#997659"/>
<path fill-rule="evenodd" clip-rule="evenodd" d="M0.433115 87.7688C0.144371 88.4305 0 88.9257 0 89.2542C0 89.6538 0.0775349 90.2369 0.232605 91.0034C0.77252 91.0034 5.62483 91.0034 14.7895 91.0034C15.1678 89.9298 14.9495 89.3501 14.1344 89.2645C13.3194 89.1789 12.6424 89.1016 12.1033 89.0326L5.33737 86.4431C5.20718 86.3933 5.05459 86.4435 4.99655 86.5552C4.99556 86.5572 4.9946 86.5591 4.99367 86.561L4.55876 87.4667C3.80426 87.769 3.19116 87.9201 2.71945 87.9201C2.33619 87.9201 1.80691 87.7872 1.1316 87.5214C0.872453 87.4194 0.566064 87.5171 0.447265 87.7396C0.442145 87.7492 0.437425 87.7589 0.433115 87.7688Z" fill="#E4E4E4"/>
<path fill-rule="evenodd" clip-rule="evenodd" d="M1.80371 84.0018L8.68503 85.1054C14.0056 78.4157 36.2726 50.9856 38.714 38.2163H23.3946C15.2417 47.4472 6.87536 77.2014 1.80371 84.0018Z" fill="#5C63AB"/>
<path fill-rule="evenodd" clip-rule="evenodd" d="M31.8775 11.5343C31.0583 10.1347 30.6875 8.55501 31.2777 7.0002C32.9781 2.52035 40.147 5.12047 40.9297 7.73277C41.7125 10.3451 39.8445 16.1465 37.8495 16.1564C37.0539 16.1604 35.5772 15.4175 34.1971 14.2386L33.4354 20.5842L27.4252 19.2977L31.8775 11.5343Z" fill="#B28B67"/>
<path fill-rule="evenodd" clip-rule="evenodd" d="M41.1971 8.88773C41.2242 8.57664 41.175 8.21419 41.1395 7.9068C41.0939 7.51053 40.9601 7.13342 40.7978 6.77026C40.4923 6.08655 40.0757 5.43901 39.5738 4.86816C38.6571 3.82546 37.329 3.05293 35.8484 2.89456C35.1009 2.8146 34.328 2.89935 33.6146 3.16305C32.97 3.40131 32.2975 3.8112 31.5852 3.69852C30.8102 3.57588 30.277 2.85289 29.7677 2.36783C29.1935 1.82097 28.5437 1.37298 27.7699 1.08727C26.4736 0.608699 25.0914 0.725458 23.8861 1.4695C22.6036 2.26128 21.4556 3.5793 21.7201 5.04878C21.7693 5.32194 21.8644 5.5637 22.0375 5.78428C22.1964 5.98656 22.4603 6.22208 22.4698 6.49301C22.4799 6.78097 22.1155 7.0717 21.9428 7.29263C21.6954 7.60916 21.4692 7.94857 21.4021 8.33582C21.292 8.97179 21.5784 9.66271 21.9441 10.1745C22.3163 10.6953 22.8536 11.0633 23.4695 11.3117C23.8807 11.4776 24.311 11.6126 24.7586 11.6792C24.9808 11.7123 25.1884 11.7019 25.4117 11.7062C25.6289 11.7103 25.7304 11.7813 25.8769 11.9146C26.5579 12.5339 27.3791 12.8929 28.3341 13.0269C29.1401 13.14 30.0977 13.172 30.8756 12.8494C31.7396 12.4912 31.9301 11.783 31.9806 10.9935C32.1371 11.107 32.6171 11.2592 32.4093 10.8962C32.3269 10.7524 32.1202 10.6569 31.9906 10.555C31.8397 10.4363 31.6931 10.2932 31.5961 10.1316C31.2044 9.47882 32.0736 8.50707 32.8136 8.47466C33.913 8.42653 33.7846 9.70522 34.4217 10.1795C34.788 10.4521 35.2994 10.2961 35.6877 10.1081C36.208 9.85623 36.6264 9.46464 37.008 9.05668C37.3222 8.72072 37.6239 8.3764 37.9415 8.04317C38.0899 7.88755 38.5709 7.46084 38.46 7.22525C39.228 7.25773 39.968 7.69104 40.4998 8.16537C40.7196 8.36145 40.8733 8.55866 40.9403 8.83611C40.9547 8.89556 40.9737 9.06721 41.0532 9.09109C41.2012 9.13557 41.1903 8.9659 41.1971 8.88773Z" fill="#191847"/>
<path fill-rule="evenodd" clip-rule="evenodd" d="M48.2695 36.298L56.396 41.5852C58.6181 42.1333 60.4703 42.8016 61.9526 43.59C62.3009 43.8708 62.7171 44.435 61.2517 44.3166C59.7862 44.1982 58.2386 44.13 58.0274 44.5545C57.8163 44.9791 58.6939 45.5037 58.2728 46.0745C57.9921 46.455 56.7227 45.4713 54.4644 43.1233L46.3718 40.1135L48.2695 36.298ZM16.6612 36.0026L22.0535 36.1016C18.5371 45.2344 16.6405 50.0798 16.3636 50.6377C15.7408 51.8929 16.9653 53.8372 17.4846 54.88C15.711 55.5264 15.9491 53.0377 13.7111 53.8868C11.6683 54.6618 10.0971 56.098 7.78099 54.8288C7.49623 54.6728 7.19242 54.0968 7.96361 53.6618C9.88492 52.578 12.6606 50.6724 13.0434 50.0372C13.5653 49.171 14.7712 44.4928 16.6612 36.0026Z" fill="#B28B67"/>
<path fill-rule="evenodd" clip-rule="evenodd" d="M32.3795 16.9012L34.6175 16.6077C42.7725 22.8417 45.9345 34.6307 55.9563 41.0009L53.4611 43.5509C35.8936 41.4248 31.821 27.0419 32.3795 16.9012Z" fill="#E87613"/>
<path fill-rule="evenodd" clip-rule="evenodd" d="M22.1648 40.7119C31.112 40.846 37.6934 40.9446 41.9089 41.0078C42.8111 41.0213 42.6637 39.9058 42.5447 39.3423C41.1713 32.8383 35.4377 25.7635 35.6252 16.5373L29.9456 15.689C25.1034 22.0906 23.3124 30.0348 22.1648 40.7119Z" fill="#DDE3E9"/>
<path fill-rule="evenodd" clip-rule="evenodd" d="M22.7054 21.9445C21.8823 21.729 21.237 21.2455 20.7692 20.4939C18.7529 17.2539 19.5405 15.4986 21.7769 14.9512C24.0132 14.4038 25.9728 15.6297 29.5171 15.6828C29.7098 15.6857 29.8862 15.6987 30.0461 15.7217L31.8272 15.8354C36.6414 30.7223 37.8512 40.6246 35.4568 45.5423L19.9167 45.3094C18.9586 47.1298 18.0462 48.6597 17.1793 49.8993L12.9449 49.8359C12.7702 38.822 16.0237 29.5249 22.7054 21.9445Z" fill="#FF9B21"/>
<path fill-rule="evenodd" clip-rule="evenodd" d="M23.4553 37.7538C23.873 41.2546 24.6158 43.8019 25.6837 45.3958L19.9166 45.3093C21.0342 43.1859 22.2137 40.6674 23.4553 37.7538Z" fill="black" fill-opacity="0.1"/>
</svg>
