<svg width="84" height="103" viewBox="0 0 84 103" fill="none" xmlns="http://www.w3.org/2000/svg">
<path fill-rule="evenodd" clip-rule="evenodd" d="M43.5836 4.73145C45.5135 7.54684 48.9879 14.221 48.0186 15.6105L39.7852 17.5046C39.7804 17.4922 39.7757 17.4799 39.771 17.4677C36.6288 17.8797 33.5621 16.2044 32.7203 13.5072L31.1659 8.52663C30.2625 5.63238 32.2632 2.65746 35.6343 1.88195L36.2022 1.75132C39.2258 1.05576 42.325 2.36574 43.5836 4.73145Z" fill="#191847"/>
<path fill-rule="evenodd" clip-rule="evenodd" d="M35.6299 11.8494C33.9138 10.8437 32.5286 9.44598 32.1165 7.61758C30.9293 2.34943 39.742 1.54115 42.2016 3.7721C44.6612 6.00305 46.5315 12.667 44.5508 13.6225C43.7609 14.0036 41.8123 13.9635 39.6795 13.4435L43.0017 20.125L36.1878 21.6925L35.6299 11.8494Z" fill="#B28B67"/>
<path fill-rule="evenodd" clip-rule="evenodd" d="M37.1992 10.5525C38.4087 13.3498 39.3057 16.6558 38.6129 17.6489L30.3795 19.5429C27.804 12.8662 33.0572 14.4727 31.0642 8.08704C31.2689 7.79364 31.459 7.5061 31.6563 7.25049L31.5885 7.06479C32.2391 4.2532 33.6602 2.5953 35.852 2.09109C39.1397 1.33479 40.5837 2.39782 41.8122 3.29977C41.7536 5.38085 39.2788 6.25672 37.3758 7.98328C37.0494 7.8594 36.6722 7.8269 36.2992 7.9127C35.4368 8.11108 34.9234 8.8668 35.1524 9.60064C35.3814 10.3345 36.2662 10.7685 37.1286 10.5702C37.1524 10.5647 37.1759 10.5588 37.1992 10.5525Z" fill="#191847"/>
<path fill-rule="evenodd" clip-rule="evenodd" d="M28.7466 66.7217C35.7977 68.4083 41.8811 69.2517 46.9969 69.2517C52.1128 69.2517 56.8646 67.953 61.2524 65.3556C54.3523 63.6244 48.6697 62.7588 44.2048 62.7588C39.7398 62.7588 34.587 64.0798 28.7466 66.7217Z" fill="#1F28CF"/>
<path fill-rule="evenodd" clip-rule="evenodd" d="M53.1012 71.6827C53.0332 71.5953 52.9757 71.5002 52.9302 71.3972C51.9877 69.2656 36.8912 46.2697 35.3872 42.0654H52.3838C53.5273 45.262 58.674 65.322 59.3983 69.3242C61.6837 75.6373 66.3891 96.0833 66.9897 97.4997C67.6216 98.9897 64.0661 100.542 63.1187 98.7102C61.6111 95.7954 58.0191 87.7303 56.4197 82.8057C54.9202 78.189 53.6993 74.0356 53.1012 71.6827Z" fill="#997659"/>
<path fill-rule="evenodd" clip-rule="evenodd" d="M39.1954 74.4903C32.2935 75.9822 7.0479 78.6791 5.31543 79.1021C3.53327 79.5373 1.97065 76.3957 4.1735 75.7152C7.67861 74.6324 17.3368 72.1305 23.1926 71.1095C27.9026 70.2883 32.2006 69.6182 35.0861 69.2258C34.8417 62.2939 33.7242 45.6584 34.4566 42.0654H49.4954C48.793 45.5108 42.8557 70.6504 41.7521 73.1668C41.4019 74.0652 40.3569 74.4622 39.1954 74.4903Z" fill="#B28B67"/>
<path fill-rule="evenodd" clip-rule="evenodd" d="M4.31107 74.8563C3.3895 74.7092 2.71413 74.6681 2.28495 74.7331C1.76297 74.8121 1.01661 75.002 0.0458597 75.303C0.152631 75.8228 1.11221 80.4949 2.92458 89.3193C4.40197 89.4712 5.11599 89.1463 5.06665 88.3446C5.01731 87.543 4.9844 86.8758 4.96791 86.3431L7.01277 79.3163C7.05211 79.1811 6.95634 79.0441 6.79885 79.0103C6.79616 79.0097 6.79345 79.0092 6.79074 79.0087L5.52154 78.769C4.97752 78.1023 4.65887 77.5419 4.56559 77.0877C4.4898 76.7187 4.55873 76.1828 4.77237 75.48C4.85436 75.2103 4.66617 74.9346 4.35203 74.8642C4.33849 74.8612 4.32483 74.8585 4.31107 74.8563Z" fill="#E4E4E4"/>
<path fill-rule="evenodd" clip-rule="evenodd" d="M62.0396 98.498C61.7108 99.2516 61.5464 99.8155 61.5464 100.19C61.5464 100.645 61.6347 101.309 61.8113 102.182C62.4262 102.182 67.9521 102.182 78.3892 102.182C78.82 100.959 78.5713 100.299 77.6432 100.201C76.715 100.104 75.9439 100.016 75.33 99.9373L67.6248 96.9882C67.4765 96.9315 67.3027 96.9887 67.2366 97.116C67.2355 97.1181 67.2344 97.1203 67.2333 97.1225L66.7381 98.154C65.8788 98.4982 65.1806 98.6703 64.6434 98.6703C64.2069 98.6703 63.6042 98.519 62.8351 98.2163C62.54 98.1001 62.191 98.2114 62.0557 98.4647C62.0499 98.4757 62.0445 98.4868 62.0396 98.498Z" fill="#E4E4E4"/>
<path fill-rule="evenodd" clip-rule="evenodd" d="M34.5051 42.0657C41.1322 40.4442 47.4026 40.4442 53.3163 42.0657C55.3738 50.0938 60.3731 53.2801 61.2523 65.5885C51.2588 69.8351 38.914 62.5599 28.6266 66.7012C25.6873 60.9086 29.8023 46.9585 34.5051 42.0657Z" fill="#2B44FF"/>
<path fill-rule="evenodd" clip-rule="evenodd" d="M50.1843 25.4405L59.2658 19.2185C60.5885 17.2706 61.9643 15.7051 63.3933 14.5218C63.8525 14.2701 64.697 14.0319 64.139 15.3833C63.581 16.7347 63.0652 18.1775 63.5558 18.4936C64.0464 18.8096 64.9672 18.125 65.5889 18.6794C66.0034 19.049 64.3807 19.9776 60.7208 21.4652L54.5932 28.2808L50.1843 25.4405ZM66.7345 27.0247L70.7224 24.2855C70.9282 22.1788 71.4604 21.0539 72.319 20.9109C72.9266 20.5478 72.2968 23.2658 73.5057 22.8554C74.7146 22.4449 77.3762 20.0366 77.9847 20.3517C78.885 20.8177 78.5577 22.717 77.9212 23.7334C76.7315 25.6332 75.5801 26.3956 72.598 27.6171C71.0388 28.2558 69.4271 29.3068 67.7629 30.7702L66.7345 27.0247Z" fill="#997659"/>
<path fill-rule="evenodd" clip-rule="evenodd" d="M45.0764 25.1331C48.589 24.5686 53.1514 23.2232 57.6009 19.7499L60.3368 23.1986C57.4843 26.6497 53.122 29.7908 48.8547 30.3317C45.4918 30.758 43.0713 27.5589 45.0764 25.1331Z" fill="#2026A2"/>
<path fill-rule="evenodd" clip-rule="evenodd" d="M51.0489 30.424C54.9483 30.6545 61.0206 28.7674 69.2656 24.7628C72.2387 28.2878 73.8115 30.8836 73.9841 32.5502C67.1315 37.0588 60.9739 39.5385 55.6673 40.444C56.3912 43.1187 56.5341 45.7464 55.7239 48.2898C54.0582 53.5186 37.5818 51.4039 32.5313 53.0756C27.3886 44.4826 32.9641 39.8301 31.7748 34.0137C30.4723 27.6442 34.4449 16.9352 35.3256 16.8018L43.3572 15.586C44.7993 20.3828 48.1307 25.4055 51.0489 30.424Z" fill="#1F28CF"/>
</svg>
