<svg width="23" height="23" viewBox="0 0 23 23" fill="none" xmlns="http://www.w3.org/2000/svg">
<g clip-path="url(#clip0_143_502)">
<path d="M19.9526 7.74316V16.6652" stroke="#FAFF00" stroke-opacity="0.9" stroke-miterlimit="10" stroke-linecap="round" stroke-linejoin="round"/>
<path d="M19.9524 16.6652H14.3174L11.4999 22.3002L8.68236 16.6652H3.04736V7.74316" stroke="#FAFF00" stroke-opacity="0.9" stroke-miterlimit="10" stroke-linecap="round" stroke-linejoin="round"/>
<path d="M3.04736 12.9092H14.3174" stroke="#FAFF00" stroke-opacity="0.9" stroke-miterlimit="10" stroke-linecap="round" stroke-linejoin="round"/>
<path d="M14.3174 14.7873V7.50879" stroke="#FAFF00" stroke-opacity="0.9" stroke-miterlimit="10" stroke-linecap="round" stroke-linejoin="round"/>
<path d="M16.1958 13.8478V11.0303" stroke="#FAFF00" stroke-opacity="0.9" stroke-miterlimit="10" stroke-linecap="round" stroke-linejoin="round"/>
<path d="M21.8306 3.51672H1.16895L3.98645 0.699219H19.0131L21.8306 3.51672Z" stroke="#FAFF00" stroke-opacity="0.9" stroke-miterlimit="10" stroke-linecap="round" stroke-linejoin="round"/>
<path d="M3.98682 3.51672L6.80432 0.699219" stroke="#FAFF00" stroke-opacity="0.9" stroke-miterlimit="10" stroke-linecap="round" stroke-linejoin="round"/>
<path d="M7.74316 3.51672L9.6215 0.699219" stroke="#FAFF00" stroke-opacity="0.9" stroke-miterlimit="10" stroke-linecap="round" stroke-linejoin="round"/>
<path d="M11.5 3.51672V0.699219" stroke="#FAFF00" stroke-opacity="0.9" stroke-miterlimit="10" stroke-linecap="round" stroke-linejoin="round"/>
<path d="M11.4998 6.80368L9.62145 8.21243L7.74311 6.80368L5.86478 8.21243L3.98645 6.80368L2.5777 8.21243L1.16895 6.80368V3.5166" stroke="#FAFF00" stroke-opacity="0.9" stroke-miterlimit="10" stroke-linecap="round" stroke-linejoin="round"/>
<path d="M3.98682 6.80368V3.5166" stroke="#FAFF00" stroke-opacity="0.9" stroke-miterlimit="10" stroke-linecap="round" stroke-linejoin="round"/>
<path d="M11.5 6.80368V3.5166" stroke="#FAFF00" stroke-opacity="0.9" stroke-miterlimit="10" stroke-linecap="round" stroke-linejoin="round"/>
<path d="M7.74316 6.80368V3.5166" stroke="#FAFF00" stroke-opacity="0.9" stroke-miterlimit="10" stroke-linecap="round" stroke-linejoin="round"/>
<path d="M19.0133 3.51672L16.1958 0.699219" stroke="#FAFF00" stroke-opacity="0.9" stroke-miterlimit="10" stroke-linecap="round" stroke-linejoin="round"/>
<path d="M15.2568 3.51672L13.3784 0.699219" stroke="#FAFF00" stroke-opacity="0.9" stroke-miterlimit="10" stroke-linecap="round" stroke-linejoin="round"/>
<path d="M11.5 6.80368L13.3783 8.21243L15.2567 6.80368L17.135 8.21243L19.0133 6.80368L20.4221 8.21243L21.8308 6.80368V3.5166" stroke="#FAFF00" stroke-opacity="0.9" stroke-miterlimit="10" stroke-linecap="round" stroke-linejoin="round"/>
<path d="M19.0132 6.80368V3.5166" stroke="#FAFF00" stroke-opacity="0.9" stroke-miterlimit="10" stroke-linecap="round" stroke-linejoin="round"/>
<path d="M15.2568 6.80368V3.5166" stroke="#FAFF00" stroke-opacity="0.9" stroke-miterlimit="10" stroke-linecap="round" stroke-linejoin="round"/>
</g>
<defs>
<clipPath id="clip0_143_502">
<rect width="23" height="23" fill="white"/>
</clipPath>
</defs>
</svg>
